<svg width="94" height="50" viewBox="0 0 94 50" fill="none" xmlns="http://www.w3.org/2000/svg">
<path d="M6.51216 42.3664C7.54667 42.9025 8.30237 43.2549 8.78775 43.4313C9.31779 43.6231 9.95947 43.7584 10.7178 43.8324L10.6835 44.1846L10.7178 43.8324C11.484 43.9071 12.0485 43.8901 12.4314 43.8009L12.4315 43.8009C12.8406 43.7057 13.2381 43.559 13.6246 43.3602L13.7865 43.675L13.6246 43.3602C14.014 43.16 14.3864 42.917 14.7419 42.6307L14.7423 42.6303C15.1033 42.3405 15.4645 42.0101 15.8256 41.6388L15.8259 41.6385C16.1887 41.2663 16.553 40.8595 16.9187 40.4177C17.2849 39.9746 17.6572 39.4934 18.0359 38.9741C18.4136 38.4536 18.8017 37.8909 19.2005 37.2861L6.51216 42.3664ZM6.51216 42.3664C7.33358 42.5343 7.92111 42.6572 8.27593 42.7354L8.27611 42.7354C8.73906 42.8371 9.23692 42.9154 9.76916 42.9715C10.316 43.0291 10.8468 43.022 11.3606 42.949C11.9206 42.8694 12.4948 42.597 13.0803 42.1666L13.0804 42.1666C13.6482 41.7491 14.1079 41.3535 14.4526 40.9794L14.4534 40.9786C14.782 40.6199 15.1188 40.2272 15.4639 39.8007M6.51216 42.3664L22.2468 27.6007L22.5697 27.7456C22.1674 28.642 21.7565 29.5078 21.3369 30.3426M15.4639 39.8007C15.4638 39.8007 15.4638 39.8008 15.4637 39.8009L15.1887 39.5781L15.4639 39.8007ZM15.4639 39.8007C15.8104 39.3729 16.167 38.906 16.5335 38.4004M16.5335 38.4004C16.5336 38.4003 16.5336 38.4002 16.5336 38.4002L16.2471 38.1924L16.5335 38.4004ZM16.5335 38.4004C16.9015 37.8934 17.2797 37.3455 17.668 36.7567L17.668 36.7567C18.0569 36.167 18.451 35.5382 18.8504 34.8704L18.8504 34.8704C19.2495 34.203 19.659 33.4902 20.0789 32.7325L20.079 32.7323C20.4987 31.974 20.918 31.1775 21.3369 30.3426M21.3369 30.3426C21.3369 30.3427 21.3369 30.3428 21.3368 30.3428L21.0206 30.1839L21.3369 30.3426ZM29.358 8.84932C29.6261 8.10254 29.8802 7.39995 30.1204 6.74154C30.3616 6.08324 30.5792 5.49573 30.7734 4.97894C30.7815 4.95761 30.7895 4.93641 30.7975 4.91536C30.9117 4.86582 31.0255 4.81622 31.1389 4.76656C31.6437 4.54596 32.076 4.35755 32.4358 4.2013C32.3944 4.38511 32.3498 4.60002 32.302 4.84518C32.1356 5.69818 31.9381 6.44003 31.7107 7.07287C31.4745 7.72815 31.2249 8.42881 30.9619 9.17485C30.6976 9.92068 30.4255 10.7035 30.1456 11.5233L30.1455 11.5235C29.8669 12.342 29.5811 13.1883 29.2879 14.0623L29.2879 14.0624C28.9947 14.9375 28.6965 15.8359 28.3934 16.7573C28.0896 17.6777 27.7743 18.6129 27.4471 19.5632M29.358 8.84932L19.2005 37.286C19.5976 36.6828 19.9984 36.0421 20.403 35.3639L20.403 35.3638C20.8078 34.6853 21.2241 33.9594 21.6519 33.1863M29.358 8.84932C29.358 8.84921 29.358 8.84909 29.3581 8.84897L29.0247 8.72993L29.3579 8.84954C29.3579 8.84947 29.3579 8.8494 29.358 8.84932ZM27.4471 19.5632C27.4471 19.5631 27.4471 19.5631 27.4471 19.5631L27.7818 19.6784L27.4471 19.5632ZM27.4471 19.5632C27.1205 20.5116 26.7659 21.4994 26.3834 22.5266L26.3833 22.5268C26.001 23.5556 25.6413 24.5138 25.3041 25.4014L25.304 25.4017C24.9699 26.2831 24.5975 27.1828 24.1865 28.1004M24.1865 28.1004C23.7735 29.021 23.3546 29.9058 22.9299 30.7552M24.1865 28.1004L24.5095 28.2453M24.1865 28.1004C24.1865 28.1005 24.1865 28.1006 24.1864 28.1007L24.5095 28.2453M22.9299 30.7552C22.5035 31.6054 22.0775 32.4158 21.6519 33.1863M22.9299 30.7552C22.9299 30.7551 22.93 30.755 22.9301 30.7549L23.2465 30.9135M22.9299 30.7552L23.2465 30.9135M21.6519 33.1863C21.6519 33.1862 21.652 33.1861 21.652 33.1861L21.9617 33.3574M21.6519 33.1863L21.9617 33.3574M21.9617 33.3574C22.3899 32.5823 22.8181 31.7677 23.2465 30.9135M21.9617 33.3574C21.5322 34.1336 21.114 34.8629 20.707 35.5452L23.2465 30.9135M23.2465 30.9135C23.6735 30.0594 24.0946 29.1701 24.5095 28.2453M23.2465 30.9135L24.5095 28.2453M32.8418 4.02349C32.7407 4.06869 32.6218 4.12078 32.4865 4.17928L32.8418 4.02349ZM32.8418 4.02349C32.7862 4.24388 32.722 4.54035 32.6494 4.91291C32.4805 5.77909 32.2786 6.53897 32.0438 7.19255L32.8418 4.02349ZM32.4567 4.11025C32.4811 4.00518 32.5045 3.91161 32.5266 3.82973C32.5323 3.80879 32.5379 3.78834 32.5436 3.76839C32.57 3.67519 32.5965 3.59321 32.6234 3.52625C32.6395 3.48613 32.6594 3.44195 32.6843 3.40079C32.7025 3.37067 32.7517 3.29244 32.8437 3.24027C32.7874 3.27219 32.5846 3.36554 32.2051 3.5297L32.2047 3.52988C31.9103 3.6577 31.5656 3.80781 31.1707 3.98019M32.4567 4.11025L32.0697 2.18129C32.0847 2.17656 32.0999 2.17221 32.1152 2.16824M32.4567 4.11025L32.3457 3.85456M32.4567 4.11025L32.3457 3.85456M31.1707 3.98019C31.2162 3.87264 31.2605 3.77079 31.3035 3.67461L31.304 3.67348C31.4617 3.31767 31.6393 2.96122 31.8369 2.60411C31.9351 2.42672 32.0133 2.30169 32.0725 2.22175C32.0905 2.19744 32.1047 2.1801 32.1152 2.16824M31.1707 3.98019C31.069 4.02461 30.9639 4.07051 30.8554 4.11789L30.8552 4.118C30.8047 4.14014 30.754 4.16225 30.7033 4.18436L30.9779 4.45066C30.9816 4.44148 30.9852 4.43232 30.9889 4.4232C30.9889 4.4232 30.9889 4.42319 30.9889 4.42318C31.0516 4.26608 31.1122 4.11843 31.1707 3.98019ZM32.1152 2.16824C32.1646 2.15541 32.2155 2.14662 32.268 2.14194L32.2684 2.14191C32.2968 2.13935 32.3253 2.13788 32.354 2.1375C32.3255 2.13786 32.2969 2.13928 32.2683 2.14177C32.2682 2.14177 32.2681 2.14178 32.268 2.14179C32.2675 2.14184 32.2669 2.14189 32.2663 2.14194L32.235 1.78953L32.2668 2.1419C32.2151 2.14656 32.1647 2.15532 32.1152 2.16821C32.1152 2.16822 32.1152 2.16823 32.1152 2.16824ZM31.0299 2.61122C30.7359 2.73723 30.4086 2.87834 30.0478 3.03457L31.0299 2.61122ZM31.0299 2.61122C30.896 2.86922 30.7717 3.12753 30.6571 3.38616C30.657 3.38634 30.6569 3.38653 30.6568 3.38672L31.0299 2.61122ZM32.3457 3.85456L32.4565 4.11083L32.3457 3.85456ZM24.5095 28.2453C24.9231 27.3216 25.2983 26.4155 25.6349 25.5271M24.5095 28.2453L25.6349 25.5271M25.6349 25.5271C25.9725 24.6386 26.3326 23.6796 26.7151 22.6501L25.6349 25.5271ZM22.0229 6.4933L22.0227 6.49338C21.5064 6.71886 20.9834 6.94804 20.4536 7.18095C19.9226 7.41441 19.3883 7.64599 18.8505 7.87572C18.3127 8.10643 17.791 8.32696 17.2854 8.53731C17.0505 8.63503 16.8223 8.73854 16.6006 8.84782C16.8812 8.81071 17.1625 8.76153 17.4447 8.70023C17.9907 8.58045 18.5559 8.44631 19.1403 8.29777L19.1404 8.29777C19.7245 8.14933 20.3036 7.99121 20.8778 7.82342L22.0229 6.4933ZM22.0229 6.4933C22.541 6.26667 23.0331 6.05071 23.4997 5.84544M22.0229 6.4933L23.4997 5.84544M22.5669 7.30789L22.5673 7.30778C23.1168 7.13327 23.6385 6.9598 24.1326 6.7874L22.5669 7.30789ZM22.5669 7.30789C22.0163 7.48338 21.4533 7.65523 20.8779 7.82341L22.5669 7.30789ZM23.4997 5.84544C23.9653 5.64057 24.4128 5.44502 24.8426 5.25876M23.4997 5.84544L24.8426 5.25876M24.8426 5.25876C25.273 5.07315 25.848 4.82537 26.568 4.51542L24.8426 5.25876ZM23.3522 24.9353L23.683 25.061C23.6831 25.0609 23.6831 25.0608 23.6831 25.0608L23.3522 24.9353ZM32.1354 2.14764C32.1354 2.14772 32.1343 2.1487 32.1322 2.15033C32.1343 2.14837 32.1354 2.14756 32.1354 2.14764ZM32.48 2.14282C32.5482 2.15045 32.6144 2.16478 32.679 2.18583L32.6808 2.18639C32.7435 2.20646 32.8017 2.23247 32.8555 2.26419L32.8555 2.2642L32.8579 2.26561C32.9114 2.29658 32.9586 2.33179 33.0001 2.37098C33.0236 2.39377 33.0446 2.4169 33.0635 2.44035C33.0768 2.4574 33.0889 2.47475 33.0998 2.49239L33.1009 2.49405C33.1271 2.53592 33.1453 2.57755 33.157 2.61952L33.157 2.61953L33.1585 2.62485L32.48 2.14282ZM33.176 2.75226C33.1753 2.79638 33.1689 2.8406 33.156 2.88569C33.1424 2.92795 33.1227 2.96956 33.0957 3.01102L33.0942 3.01342C33.0667 3.0563 33.0329 3.09663 32.9918 3.13441C33.0334 3.09621 33.0674 3.05598 33.0948 3.01382L33.176 2.75226ZM31.304 2.10919C31.6588 1.958 31.8786 1.8695 31.9633 1.84369L31.304 2.10919ZM30.2436 4.38352C29.9159 4.52454 29.5848 4.66505 29.2503 4.80504L29.2499 4.80524C28.7067 5.03347 28.0648 5.29537 27.3236 5.59096L27.3236 5.59098C26.5827 5.88655 25.9905 6.11643 25.546 6.28114C25.0985 6.44563 24.6276 6.61435 24.1328 6.78732L30.2436 4.38352ZM29.6235 14.1749C29.3305 15.0494 29.0325 15.9472 28.7295 16.8681L29.6235 14.1749ZM28.5342 11.2026C28.5343 11.2025 28.5343 11.2025 28.5343 11.2024L28.1995 11.0876L28.5342 11.2026ZM26.43 16.3417L26.766 16.4531C26.766 16.453 26.766 16.4529 26.766 16.4529L26.43 16.3417ZM24.4255 22.0833L24.7571 22.2071C24.7571 22.2071 24.7571 22.207 24.7571 22.207L24.4255 22.0833Z" fill="white" stroke="white" stroke-width="0.707904"/>
<mask id="path-2-inside-1" fill="white">
<path d="M32.446 32.5862C32.446 32.5862 32.3509 32.6842 32.1609 32.8801C31.9706 33.0759 31.6603 33.3605 31.2299 33.7336C30.7993 34.1059 30.4058 34.5074 30.049 34.9382C29.6923 35.369 29.386 35.795 29.1298 36.2166C28.8738 36.638 28.6648 37.0382 28.5026 37.4171C28.3405 37.7958 28.3304 38.1671 28.4724 38.531C28.6144 38.895 28.9197 38.9911 29.3882 38.8194C29.8568 38.6484 30.322 38.3556 30.7837 37.9406C31.2445 37.5265 31.6762 37.0944 32.0786 36.6441C32.4801 36.1938 32.8373 35.7756 33.1504 35.3894C33.4624 35.0031 33.7648 34.6171 34.0578 34.2308C34.3508 33.8455 34.5945 33.5053 34.7892 33.21C34.9836 32.9157 35.1083 32.7371 35.1632 32.6739C35.2168 32.6108 35.2794 32.5542 35.3511 32.5041C35.4225 32.453 35.5002 32.4102 35.5842 32.3759C35.668 32.3406 35.7559 32.3146 35.8476 32.2979C35.938 32.2802 36.0303 32.2724 36.1242 32.2742C36.2181 32.2752 36.3104 32.2859 36.401 32.3062C36.4916 32.3258 36.5776 32.3545 36.6594 32.3926C36.7421 32.4297 36.8181 32.4747 36.8874 32.5276C36.9557 32.5796 37.0159 32.6382 37.0686 32.7031C37.12 32.7681 37.1614 32.8372 37.1927 32.9106C37.2241 32.984 37.2447 33.0591 37.2548 33.1362C37.2648 33.2142 37.2631 33.2917 37.2497 33.3687C37.2364 33.4458 37.2123 33.5206 37.1776 33.5931C37.143 33.6645 37.1233 33.9417 37.1189 34.4244C37.1156 34.9071 37.0909 35.3834 37.045 35.8531C36.9981 36.3229 36.9623 36.7825 36.9377 37.2317C36.9121 37.6811 37.1088 37.6779 37.5281 37.222C37.9475 36.7661 38.4904 36.2905 39.1567 35.7946C39.8232 35.2979 40.4494 34.797 41.0354 34.2921C41.6224 33.788 42.1379 33.3372 42.5819 32.9398C43.0257 32.5435 43.4657 32.1986 43.9018 31.9051C44.3379 31.6128 44.8133 31.5204 45.3277 31.6281C45.842 31.7357 46.2194 32.0519 46.4597 32.5764C46.699 33.101 46.8187 33.6793 46.8187 34.3116C46.8198 34.9447 46.7964 35.5236 46.7483 36.0481C46.7014 36.5726 46.6537 37.0294 46.6056 37.4184C46.5586 37.8074 46.5174 38.1203 46.4815 38.357C46.4457 38.5937 46.4172 38.7501 46.396 38.8262C46.3748 38.9024 46.343 38.9753 46.3004 39.0449C46.2568 39.1135 46.2043 39.1776 46.1428 39.2371C46.0813 39.2955 46.0124 39.347 45.9365 39.3917C45.8594 39.4371 45.777 39.4738 45.6899 39.5016C45.6026 39.5305 45.5126 39.5499 45.4197 39.5602C45.3258 39.5704 45.2324 39.5713 45.1398 39.5629C45.0459 39.5536 44.9553 39.536 44.868 39.51C44.7796 39.4831 44.6963 39.4478 44.6181 39.4042C44.5409 39.3605 44.4705 39.3094 44.4068 39.251C44.3442 39.1935 44.2904 39.1304 44.2457 39.0616C44.2022 38.9929 44.1685 38.921 44.1451 38.8458C44.1215 38.7706 44.1094 38.694 44.1081 38.616C44.107 38.538 44.2171 38.208 44.4387 37.6259C44.6589 37.0447 44.8691 36.5638 45.0693 36.1831C45.2695 35.8025 45.4796 35.427 45.6999 35.0565C45.9214 34.6862 46.1568 34.3227 46.4062 33.9661C46.6555 33.6088 46.9176 33.2718 47.1927 32.9551C47.4668 32.6386 47.915 32.2524 48.5379 31.7966C49.1608 31.3408 49.8921 31.1096 50.7319 31.1031C51.5715 31.0966 52.3119 31.2901 52.9526 31.6837C53.5933 32.0765 54.144 32.4831 54.6048 32.9036C55.0665 33.3233 55.5026 33.7356 55.9129 34.1403C56.3235 34.545 56.7148 34.9122 57.087 35.2418C57.4594 35.5704 57.8592 35.8397 58.2863 36.0495C58.7125 36.2583 59.1401 36.2129 59.5694 35.9131C59.9989 35.614 60.4439 35.2093 60.9046 34.6987C61.3641 34.1871 61.7813 33.6715 62.1559 33.1516C62.5305 32.6307 62.8202 32.1869 63.0248 31.8203C63.2294 31.4536 63.0627 31.3278 62.525 31.4429C61.9859 31.558 61.533 31.8161 61.1664 32.2172C60.7984 32.6181 60.5054 33.0132 60.2873 33.4022C60.0705 33.7912 59.8989 34.169 59.7724 34.5357C59.646 34.9025 59.5694 35.3045 59.5427 35.7417C59.5169 36.1781 59.498 36.4348 59.4856 36.5119C59.4733 36.5889 59.4499 36.6635 59.4153 36.736C59.3816 36.8094 59.3376 36.8776 59.2827 36.9408C59.2291 37.0048 59.167 37.0619 59.0965 37.112C59.0261 37.1631 58.949 37.2067 58.865 37.2429C58.7812 37.2782 58.6939 37.3047 58.6035 37.3223C58.5117 37.34 58.4189 37.3483 58.325 37.3473C58.2322 37.3473 58.1399 37.3375 58.0482 37.3181C57.9576 37.2986 57.8716 37.2703 57.7898 37.2331C57.7071 37.196 57.631 37.1515 57.5618 37.0995C57.4913 37.0475 57.4298 36.9895 57.3773 36.9255C57.3259 36.8605 57.2839 36.7912 57.2515 36.718C57.2191 36.6455 57.1973 36.5703 57.1861 36.4923C57.176 36.4152 57.327 36.2175 57.639 35.899C57.9521 35.5807 58.283 35.201 58.6318 34.76C58.9819 34.3181 59.3615 33.8446 59.7707 33.3395C60.1788 32.8336 60.5512 32.3703 60.8879 31.9498C61.2244 31.5291 61.6275 31.1499 62.0971 30.812C62.5668 30.4732 63.1047 30.436 63.7108 30.7007C64.3178 30.9652 64.6937 31.3802 64.8379 31.9456C64.9821 32.5119 65.0939 33.0703 65.1733 33.6209C65.2538 34.1723 65.3785 34.6453 65.5474 35.0398C65.7162 35.4336 66.1076 35.5435 66.7214 35.37C67.3355 35.1953 67.9929 34.9856 68.6941 34.7405C69.3963 34.4953 70.1241 34.2265 70.8778 33.9342C71.6327 33.6417 72.3802 33.3489 73.1204 33.0554C73.8594 32.7622 74.5825 32.4776 75.2891 32.2018C75.9958 31.9261 76.6662 31.6712 77.3003 31.4372C77.9331 31.2033 78.523 30.9908 79.0698 30.7995C79.6155 30.6073 81.3978 30.1038 84.4169 29.2886C87.4362 28.4744 87.5881 28.7492 84.8733 30.1129C82.1583 31.4767 80.5368 32.2681 80.009 32.4872C79.4812 32.7064 78.9077 32.9398 78.2881 33.1877C77.6686 33.4366 77.0078 33.6998 76.3056 33.9773C75.6022 34.2559 74.8772 34.5427 74.1302 34.838C73.3821 35.1322 72.615 35.4297 71.8288 35.7305C71.0428 36.0323 70.2601 36.3155 69.4806 36.5801C68.7012 36.8437 67.9147 37.0559 67.1207 37.2164C66.3268 37.3781 65.6665 37.3947 65.1398 37.2666C64.6131 37.1385 64.1429 36.7983 63.7292 36.2458C63.3143 35.6926 63.0672 35.162 62.9878 34.6541C62.9084 34.1463 62.9465 33.6437 63.102 33.146C63.2561 32.6484 63.1651 32.6099 62.8285 33.0304C62.492 33.451 62.115 33.9184 61.698 34.4327C61.2809 34.947 60.8113 35.4028 60.289 35.8002C59.7658 36.1975 59.498 36.4348 59.4856 36.5119C59.4733 36.5889 59.4499 36.6635 59.4153 36.736C59.3816 36.8085 59.3381 36.8767 59.2843 36.9408C59.2296 37.0039 59.167 37.0609 59.0965 37.112C59.0261 37.1631 58.949 37.2067 58.865 37.2429C58.7812 37.2782 58.6939 37.3047 58.6035 37.3223C58.5117 37.34 58.4195 37.3483 58.3267 37.3473C58.2327 37.3473 58.1405 37.3375 58.0499 37.3181C57.9581 37.2986 57.8716 37.2703 57.7898 37.2331C57.7071 37.196 57.631 37.1515 57.5618 37.0995C57.4913 37.0475 57.4303 36.9895 57.3789 36.9255C57.3264 36.8605 57.2839 36.7912 57.2515 36.718C57.2191 36.6455 57.1973 36.5707 57.1861 36.4937C57.176 36.4157 57.1721 36.1771 57.1743 35.7779C57.1765 35.3787 57.2347 34.9749 57.3487 34.5664C57.464 34.157 57.6322 33.7096 57.8537 33.2239C58.0762 32.7385 58.3585 32.2528 58.7007 31.7674C59.044 31.2827 59.4963 30.8343 60.0577 30.4221C60.619 30.0099 61.1947 29.7444 61.7852 29.6256C62.3756 29.5057 62.9587 29.4877 63.5346 29.5712C64.1105 29.6548 64.5996 29.9278 65.0022 30.3901C65.4059 30.8524 65.5413 31.3412 65.4081 31.8565C65.2752 32.3707 65.0381 32.8823 64.6971 33.3911C64.3571 33.8989 63.9421 34.4559 63.4524 35.0622C62.9627 35.6684 62.394 36.2472 61.7467 36.7987C61.0991 37.3501 60.5691 37.716 60.1566 37.896C59.7429 38.077 59.1781 38.1342 58.4626 38.0674C57.7469 38.0005 57.1542 37.8223 56.6846 37.5325C56.2139 37.2429 55.7743 36.918 55.3661 36.5577C54.9569 36.1966 54.5494 35.8155 54.1434 35.4145C53.7375 35.0143 53.3366 34.6314 52.9408 34.2655C52.5439 33.9007 52.0714 33.5582 51.5235 33.2379C50.9756 32.9166 50.5021 32.9008 50.1028 33.1906C49.7026 33.4802 49.2737 33.9157 48.8164 34.4967C48.3591 35.0779 47.9359 35.7116 47.5467 36.3976C47.1576 37.0837 46.8736 37.6412 46.6946 38.0701C46.5168 38.4981 46.4172 38.7501 46.396 38.8262C46.3748 38.9024 46.343 38.9749 46.3004 39.0435C46.2568 39.1131 46.2043 39.1776 46.1428 39.2371C46.0813 39.2955 46.0124 39.347 45.9365 39.3917C45.8594 39.4371 45.777 39.4738 45.6899 39.5016C45.6026 39.5305 45.5126 39.5499 45.4197 39.5602C45.3258 39.5704 45.2324 39.5713 45.1398 39.5629C45.047 39.5536 44.9564 39.536 44.868 39.51C44.7796 39.4831 44.6963 39.4478 44.6181 39.4042C44.5409 39.3605 44.4705 39.3094 44.4068 39.251C44.3442 39.1935 44.2904 39.1304 44.2457 39.0616C44.2022 38.9929 44.1685 38.921 44.1451 38.8458C44.1215 38.7706 44.1094 38.694 44.1081 38.616C44.107 38.538 44.1344 38.2947 44.1904 37.8863C44.2473 37.4787 44.3 37.0577 44.3481 36.6232C44.3961 36.1879 44.4352 35.7088 44.4654 35.186C44.4945 34.6625 44.67 34.2025 44.9921 33.806C45.3153 33.4106 45.2895 33.3804 44.9149 33.7155C44.5414 34.0516 44.088 34.4559 43.5547 34.9285C43.0213 35.4001 42.5896 35.7738 42.2598 36.0495C41.9288 36.3242 41.5828 36.6033 41.2216 36.8865C40.8592 37.1686 40.4835 37.4444 40.0945 37.7135C39.7065 37.9828 39.1166 38.3064 38.3248 38.6842C37.5344 39.0629 36.7896 39.1833 36.0907 39.0449C35.3918 38.9065 34.968 38.5296 34.8194 37.9142C34.6706 37.2986 34.6159 36.7791 34.6549 36.3559C34.6952 35.9325 34.7411 35.4817 34.7925 35.0036C34.8439 34.5265 34.9048 34.0349 34.9754 33.529C35.0457 33.0221 35.1078 32.7371 35.1615 32.6739C35.2162 32.6108 35.2794 32.5542 35.3511 32.5041C35.4225 32.453 35.5002 32.4102 35.5842 32.3759C35.668 32.3406 35.7553 32.3146 35.8457 32.2979C35.9375 32.2802 36.0303 32.2724 36.1242 32.2742C36.2181 32.2752 36.3104 32.2859 36.401 32.3062C36.4916 32.3258 36.5776 32.3545 36.6594 32.3926C36.7421 32.4297 36.8181 32.4747 36.8874 32.5276C36.9557 32.5796 37.0159 32.6382 37.0686 32.7031C37.12 32.7681 37.1614 32.8372 37.1927 32.9106C37.2241 32.984 37.2447 33.0591 37.2548 33.1362C37.2648 33.2142 37.2631 33.2917 37.2497 33.3687C37.2364 33.4458 37.2123 33.5201 37.1776 33.5917C37.143 33.664 37.0568 33.8065 36.9193 34.019C36.7817 34.2308 36.585 34.5145 36.3288 34.87C36.0728 35.2245 35.8072 35.5761 35.5321 35.9241C35.2582 36.2713 34.9273 36.6747 34.5392 37.1343C34.1512 37.5938 33.7016 38.0799 33.1906 38.5923C32.6786 39.1039 32.1021 39.5825 31.4614 40.0281C30.8207 40.4736 30.1492 40.7401 29.447 40.8275C28.7436 40.9146 28.1386 40.8181 27.6322 40.5377C27.1255 40.2583 26.7627 39.9116 26.5436 39.4975C26.3255 39.0834 26.2445 38.6313 26.3003 38.1411C26.3574 37.6499 26.5167 37.1882 26.7784 36.7556C27.0401 36.3229 27.357 35.8898 27.7294 35.4562C28.1018 35.0236 28.5355 34.6012 29.0309 34.1891C29.5275 33.7778 30.0687 33.4111 30.6546 33.0889C31.2417 32.7677 31.6867 32.6033 31.9898 32.596C32.2928 32.5885 32.4443 32.5848 32.4443 32.5848C32.4454 32.5857 32.446 32.5862 32.446 32.5862Z"/>
</mask>
<path d="M32.446 32.5862C32.446 32.5862 32.3509 32.6842 32.1609 32.8801C31.9706 33.0759 31.6603 33.3605 31.2299 33.7336C30.7993 34.1059 30.4058 34.5074 30.049 34.9382C29.6923 35.369 29.386 35.795 29.1298 36.2166C28.8738 36.638 28.6648 37.0382 28.5026 37.4171C28.3405 37.7958 28.3304 38.1671 28.4724 38.531C28.6144 38.895 28.9197 38.9911 29.3882 38.8194C29.8568 38.6484 30.322 38.3556 30.7837 37.9406C31.2445 37.5265 31.6762 37.0944 32.0786 36.6441C32.4801 36.1938 32.8373 35.7756 33.1504 35.3894C33.4624 35.0031 33.7648 34.6171 34.0578 34.2308C34.3508 33.8455 34.5945 33.5053 34.7892 33.21C34.9836 32.9157 35.1083 32.7371 35.1632 32.6739C35.2168 32.6108 35.2794 32.5542 35.3511 32.5041C35.4225 32.453 35.5002 32.4102 35.5842 32.3759C35.668 32.3406 35.7559 32.3146 35.8476 32.2979C35.938 32.2802 36.0303 32.2724 36.1242 32.2742C36.2181 32.2752 36.3104 32.2859 36.401 32.3062C36.4916 32.3258 36.5776 32.3545 36.6594 32.3926C36.7421 32.4297 36.8181 32.4747 36.8874 32.5276C36.9557 32.5796 37.0159 32.6382 37.0686 32.7031C37.12 32.7681 37.1614 32.8372 37.1927 32.9106C37.2241 32.984 37.2447 33.0591 37.2548 33.1362C37.2648 33.2142 37.2631 33.2917 37.2497 33.3687C37.2364 33.4458 37.2123 33.5206 37.1776 33.5931C37.143 33.6645 37.1233 33.9417 37.1189 34.4244C37.1156 34.9071 37.0909 35.3834 37.045 35.8531C36.9981 36.3229 36.9623 36.7825 36.9377 37.2317C36.9121 37.6811 37.1088 37.6779 37.5281 37.222C37.9475 36.7661 38.4904 36.2905 39.1567 35.7946C39.8232 35.2979 40.4494 34.797 41.0354 34.2921C41.6224 33.788 42.1379 33.3372 42.5819 32.9398C43.0257 32.5435 43.4657 32.1986 43.9018 31.9051C44.3379 31.6128 44.8133 31.5204 45.3277 31.6281C45.842 31.7357 46.2194 32.0519 46.4597 32.5764C46.699 33.101 46.8187 33.6793 46.8187 34.3116C46.8198 34.9447 46.7964 35.5236 46.7483 36.0481C46.7014 36.5726 46.6537 37.0294 46.6056 37.4184C46.5586 37.8074 46.5174 38.1203 46.4815 38.357C46.4457 38.5937 46.4172 38.7501 46.396 38.8262C46.3748 38.9024 46.343 38.9753 46.3004 39.0449C46.2568 39.1135 46.2043 39.1776 46.1428 39.2371C46.0813 39.2955 46.0124 39.347 45.9365 39.3917C45.8594 39.4371 45.777 39.4738 45.6899 39.5016C45.6026 39.5305 45.5126 39.5499 45.4197 39.5602C45.3258 39.5704 45.2324 39.5713 45.1398 39.5629C45.0459 39.5536 44.9553 39.536 44.868 39.51C44.7796 39.4831 44.6963 39.4478 44.6181 39.4042C44.5409 39.3605 44.4705 39.3094 44.4068 39.251C44.3442 39.1935 44.2904 39.1304 44.2457 39.0616C44.2022 38.9929 44.1685 38.921 44.1451 38.8458C44.1215 38.7706 44.1094 38.694 44.1081 38.616C44.107 38.538 44.2171 38.208 44.4387 37.6259C44.6589 37.0447 44.8691 36.5638 45.0693 36.1831C45.2695 35.8025 45.4796 35.427 45.6999 35.0565C45.9214 34.6862 46.1568 34.3227 46.4062 33.9661C46.6555 33.6088 46.9176 33.2718 47.1927 32.9551C47.4668 32.6386 47.915 32.2524 48.5379 31.7966C49.1608 31.3408 49.8921 31.1096 50.7319 31.1031C51.5715 31.0966 52.3119 31.2901 52.9526 31.6837C53.5933 32.0765 54.144 32.4831 54.6048 32.9036C55.0665 33.3233 55.5026 33.7356 55.9129 34.1403C56.3235 34.545 56.7148 34.9122 57.087 35.2418C57.4594 35.5704 57.8592 35.8397 58.2863 36.0495C58.7125 36.2583 59.1401 36.2129 59.5694 35.9131C59.9989 35.614 60.4439 35.2093 60.9046 34.6987C61.3641 34.1871 61.7813 33.6715 62.1559 33.1516C62.5305 32.6307 62.8202 32.1869 63.0248 31.8203C63.2294 31.4536 63.0627 31.3278 62.525 31.4429C61.9859 31.558 61.533 31.8161 61.1664 32.2172C60.7984 32.6181 60.5054 33.0132 60.2873 33.4022C60.0705 33.7912 59.8989 34.169 59.7724 34.5357C59.646 34.9025 59.5694 35.3045 59.5427 35.7417C59.5169 36.1781 59.498 36.4348 59.4856 36.5119C59.4733 36.5889 59.4499 36.6635 59.4153 36.736C59.3816 36.8094 59.3376 36.8776 59.2827 36.9408C59.2291 37.0048 59.167 37.0619 59.0965 37.112C59.0261 37.1631 58.949 37.2067 58.865 37.2429C58.7812 37.2782 58.6939 37.3047 58.6035 37.3223C58.5117 37.34 58.4189 37.3483 58.325 37.3473C58.2322 37.3473 58.1399 37.3375 58.0482 37.3181C57.9576 37.2986 57.8716 37.2703 57.7898 37.2331C57.7071 37.196 57.631 37.1515 57.5618 37.0995C57.4913 37.0475 57.4298 36.9895 57.3773 36.9255C57.3259 36.8605 57.2839 36.7912 57.2515 36.718C57.2191 36.6455 57.1973 36.5703 57.1861 36.4923C57.176 36.4152 57.327 36.2175 57.639 35.899C57.9521 35.5807 58.283 35.201 58.6318 34.76C58.9819 34.3181 59.3615 33.8446 59.7707 33.3395C60.1788 32.8336 60.5512 32.3703 60.8879 31.9498C61.2244 31.5291 61.6275 31.1499 62.0971 30.812C62.5668 30.4732 63.1047 30.436 63.7108 30.7007C64.3178 30.9652 64.6937 31.3802 64.8379 31.9456C64.9821 32.5119 65.0939 33.0703 65.1733 33.6209C65.2538 34.1723 65.3785 34.6453 65.5474 35.0398C65.7162 35.4336 66.1076 35.5435 66.7214 35.37C67.3355 35.1953 67.9929 34.9856 68.6941 34.7405C69.3963 34.4953 70.1241 34.2265 70.8778 33.9342C71.6327 33.6417 72.3802 33.3489 73.1204 33.0554C73.8594 32.7622 74.5825 32.4776 75.2891 32.2018C75.9958 31.9261 76.6662 31.6712 77.3003 31.4372C77.9331 31.2033 78.523 30.9908 79.0698 30.7995C79.6155 30.6073 81.3978 30.1038 84.4169 29.2886C87.4362 28.4744 87.5881 28.7492 84.8733 30.1129C82.1583 31.4767 80.5368 32.2681 80.009 32.4872C79.4812 32.7064 78.9077 32.9398 78.2881 33.1877C77.6686 33.4366 77.0078 33.6998 76.3056 33.9773C75.6022 34.2559 74.8772 34.5427 74.1302 34.838C73.3821 35.1322 72.615 35.4297 71.8288 35.7305C71.0428 36.0323 70.2601 36.3155 69.4806 36.5801C68.7012 36.8437 67.9147 37.0559 67.1207 37.2164C66.3268 37.3781 65.6665 37.3947 65.1398 37.2666C64.6131 37.1385 64.1429 36.7983 63.7292 36.2458C63.3143 35.6926 63.0672 35.162 62.9878 34.6541C62.9084 34.1463 62.9465 33.6437 63.102 33.146C63.2561 32.6484 63.1651 32.6099 62.8285 33.0304C62.492 33.451 62.115 33.9184 61.698 34.4327C61.2809 34.947 60.8113 35.4028 60.289 35.8002C59.7658 36.1975 59.498 36.4348 59.4856 36.5119C59.4733 36.5889 59.4499 36.6635 59.4153 36.736C59.3816 36.8085 59.3381 36.8767 59.2843 36.9408C59.2296 37.0039 59.167 37.0609 59.0965 37.112C59.0261 37.1631 58.949 37.2067 58.865 37.2429C58.7812 37.2782 58.6939 37.3047 58.6035 37.3223C58.5117 37.34 58.4195 37.3483 58.3267 37.3473C58.2327 37.3473 58.1405 37.3375 58.0499 37.3181C57.9581 37.2986 57.8716 37.2703 57.7898 37.2331C57.7071 37.196 57.631 37.1515 57.5618 37.0995C57.4913 37.0475 57.4303 36.9895 57.3789 36.9255C57.3264 36.8605 57.2839 36.7912 57.2515 36.718C57.2191 36.6455 57.1973 36.5707 57.1861 36.4937C57.176 36.4157 57.1721 36.1771 57.1743 35.7779C57.1765 35.3787 57.2347 34.9749 57.3487 34.5664C57.464 34.157 57.6322 33.7096 57.8537 33.2239C58.0762 32.7385 58.3585 32.2528 58.7007 31.7674C59.044 31.2827 59.4963 30.8343 60.0577 30.4221C60.619 30.0099 61.1947 29.7444 61.7852 29.6256C62.3756 29.5057 62.9587 29.4877 63.5346 29.5712C64.1105 29.6548 64.5996 29.9278 65.0022 30.3901C65.4059 30.8524 65.5413 31.3412 65.4081 31.8565C65.2752 32.3707 65.0381 32.8823 64.6971 33.3911C64.3571 33.8989 63.9421 34.4559 63.4524 35.0622C62.9627 35.6684 62.394 36.2472 61.7467 36.7987C61.0991 37.3501 60.5691 37.716 60.1566 37.896C59.7429 38.077 59.1781 38.1342 58.4626 38.0674C57.7469 38.0005 57.1542 37.8223 56.6846 37.5325C56.2139 37.2429 55.7743 36.918 55.3661 36.5577C54.9569 36.1966 54.5494 35.8155 54.1434 35.4145C53.7375 35.0143 53.3366 34.6314 52.9408 34.2655C52.5439 33.9007 52.0714 33.5582 51.5235 33.2379C50.9756 32.9166 50.5021 32.9008 50.1028 33.1906C49.7026 33.4802 49.2737 33.9157 48.8164 34.4967C48.3591 35.0779 47.9359 35.7116 47.5467 36.3976C47.1576 37.0837 46.8736 37.6412 46.6946 38.0701C46.5168 38.4981 46.4172 38.7501 46.396 38.8262C46.3748 38.9024 46.343 38.9749 46.3004 39.0435C46.2568 39.1131 46.2043 39.1776 46.1428 39.2371C46.0813 39.2955 46.0124 39.347 45.9365 39.3917C45.8594 39.4371 45.777 39.4738 45.6899 39.5016C45.6026 39.5305 45.5126 39.5499 45.4197 39.5602C45.3258 39.5704 45.2324 39.5713 45.1398 39.5629C45.047 39.5536 44.9564 39.536 44.868 39.51C44.7796 39.4831 44.6963 39.4478 44.6181 39.4042C44.5409 39.3605 44.4705 39.3094 44.4068 39.251C44.3442 39.1935 44.2904 39.1304 44.2457 39.0616C44.2022 38.9929 44.1685 38.921 44.1451 38.8458C44.1215 38.7706 44.1094 38.694 44.1081 38.616C44.107 38.538 44.1344 38.2947 44.1904 37.8863C44.2473 37.4787 44.3 37.0577 44.3481 36.6232C44.3961 36.1879 44.4352 35.7088 44.4654 35.186C44.4945 34.6625 44.67 34.2025 44.9921 33.806C45.3153 33.4106 45.2895 33.3804 44.9149 33.7155C44.5414 34.0516 44.088 34.4559 43.5547 34.9285C43.0213 35.4001 42.5896 35.7738 42.2598 36.0495C41.9288 36.3242 41.5828 36.6033 41.2216 36.8865C40.8592 37.1686 40.4835 37.4444 40.0945 37.7135C39.7065 37.9828 39.1166 38.3064 38.3248 38.6842C37.5344 39.0629 36.7896 39.1833 36.0907 39.0449C35.3918 38.9065 34.968 38.5296 34.8194 37.9142C34.6706 37.2986 34.6159 36.7791 34.6549 36.3559C34.6952 35.9325 34.7411 35.4817 34.7925 35.0036C34.8439 34.5265 34.9048 34.0349 34.9754 33.529C35.0457 33.0221 35.1078 32.7371 35.1615 32.6739C35.2162 32.6108 35.2794 32.5542 35.3511 32.5041C35.4225 32.453 35.5002 32.4102 35.5842 32.3759C35.668 32.3406 35.7553 32.3146 35.8457 32.2979C35.9375 32.2802 36.0303 32.2724 36.1242 32.2742C36.2181 32.2752 36.3104 32.2859 36.401 32.3062C36.4916 32.3258 36.5776 32.3545 36.6594 32.3926C36.7421 32.4297 36.8181 32.4747 36.8874 32.5276C36.9557 32.5796 37.0159 32.6382 37.0686 32.7031C37.12 32.7681 37.1614 32.8372 37.1927 32.9106C37.2241 32.984 37.2447 33.0591 37.2548 33.1362C37.2648 33.2142 37.2631 33.2917 37.2497 33.3687C37.2364 33.4458 37.2123 33.5201 37.1776 33.5917C37.143 33.664 37.0568 33.8065 36.9193 34.019C36.7817 34.2308 36.585 34.5145 36.3288 34.87C36.0728 35.2245 35.8072 35.5761 35.5321 35.9241C35.2582 36.2713 34.9273 36.6747 34.5392 37.1343C34.1512 37.5938 33.7016 38.0799 33.1906 38.5923C32.6786 39.1039 32.1021 39.5825 31.4614 40.0281C30.8207 40.4736 30.1492 40.7401 29.447 40.8275C28.7436 40.9146 28.1386 40.8181 27.6322 40.5377C27.1255 40.2583 26.7627 39.9116 26.5436 39.4975C26.3255 39.0834 26.2445 38.6313 26.3003 38.1411C26.3574 37.6499 26.5167 37.1882 26.7784 36.7556C27.0401 36.3229 27.357 35.8898 27.7294 35.4562C28.1018 35.0236 28.5355 34.6012 29.0309 34.1891C29.5275 33.7778 30.0687 33.4111 30.6546 33.0889C31.2417 32.7677 31.6867 32.6033 31.9898 32.596C32.2928 32.5885 32.4443 32.5848 32.4443 32.5848C32.4454 32.5857 32.446 32.5862 32.446 32.5862Z" fill="white" stroke="white" stroke-width="1.41581" mask="url(#path-2-inside-1)"/>
</svg>
