<svg width="1200" height="630" viewBox="0 0 1200 630" fill="none" xmlns="http://www.w3.org/2000/svg">
<g clip-path="url(#clip0)">
<rect width="1200" height="630" fill="#161616"/>
<circle r="2.56647" transform="matrix(-1 0 0 1 585.335 109.029)" fill="white"/>
<circle r="2.56647" transform="matrix(-1 0 0 1 845.832 229.653)" fill="white"/>
<circle r="2.56647" transform="matrix(-1 0 0 1 735.474 370.809)" fill="white"/>
<path d="M893.616 456.813C876.458 451.138 858.117 459.94 852.274 477.605C849.337 486.488 849.428 492.959 853.142 501.545C854.552 497.281 904.385 463.077 904.385 463.077C904.385 463.077 902.754 459.835 893.616 456.813Z" fill="#161616"/>
<circle cx="1004.31" cy="621.682" r="3.20809" fill="#161616"/>
<circle cx="1155.73" cy="288.04" r="4.49133" fill="#161616"/>
<rect x="1031.9" y="422.467" width="1.94117" height="1.94117" rx="0.265094" transform="rotate(-24.4476 1031.9 422.467)" fill="white"/>
<rect x="168.283" y="182.502" width="3.89396" height="3.89396" rx="0.531777" transform="rotate(-24.4476 168.283 182.502)" fill="white"/>
<rect x="789.067" y="480.567" width="3.37824" height="3.37824" rx="0.481997" transform="rotate(35.3063 789.067 480.567)" fill="#161616"/>
<path d="M849.655 593.618C849.785 593.861 849.744 594.159 849.553 594.358L847.5 596.496C847.31 596.695 847.013 596.748 846.766 596.628L844.098 595.336C843.85 595.216 843.708 594.951 843.745 594.678L844.149 591.742C844.186 591.469 844.395 591.252 844.666 591.203L847.584 590.68C847.854 590.631 848.126 590.762 848.256 591.005L849.655 593.618Z" fill="white"/>
<path d="M1153.11 580.674C1153.2 580.777 1153.21 580.926 1153.14 581.043L1152.38 582.3C1152.31 582.416 1152.17 582.474 1152.04 582.443L1150.61 582.106C1150.47 582.075 1150.38 581.961 1150.37 581.825L1150.24 580.36C1150.23 580.224 1150.31 580.096 1150.44 580.043L1151.79 579.475C1151.92 579.422 1152.06 579.456 1152.15 579.56L1153.11 580.674Z" fill="white"/>
<path d="M1007.19 254.684C1007.46 254.683 1007.71 254.859 1007.79 255.12L1008.72 257.935C1008.81 258.196 1008.72 258.483 1008.5 258.646L1006.11 260.4C1005.89 260.563 1005.58 260.564 1005.36 260.404L1002.95 258.673C1002.73 258.512 1002.64 258.226 1002.72 257.964L1003.62 255.14C1003.71 254.878 1003.95 254.7 1004.22 254.699L1007.19 254.684Z" fill="white"/>
<path d="M629.217 584.942C629.432 584.94 629.623 585.078 629.69 585.281L630.415 587.476C630.482 587.68 630.411 587.904 630.238 588.031L628.374 589.399C628.201 589.526 627.966 589.527 627.792 589.402L625.915 588.052C625.741 587.927 625.667 587.704 625.733 587.499L626.436 585.297C626.501 585.093 626.691 584.954 626.905 584.953L629.217 584.942Z" fill="#161616"/>
</g>
<defs>
<clipPath id="clip0">
<rect width="1200" height="630" fill="white"/>
</clipPath>
</defs>
</svg>
